<svg version="1.1" id="Layer_1" xmlns="http://www.w3.org/2000/svg" xmlns:xlink="http://www.w3.org/1999/xlink" x="0px" y="0px"
	 width="100%" viewBox="0 0 1920 1080" enable-background="new 0 0 1920 1080" xml:space="preserve">
<path fill="#FEFFFF" opacity="1.000000" stroke="none" 
	d="
M1360.000000,1081.000000 
	C906.666748,1081.000000 453.833496,1081.000000 1.000182,1081.000000 
	C1.000122,721.000122 1.000122,361.000305 1.000061,1.000218 
	C1.999854,1.000000 2.999709,1.000000 3.999563,1.000000 
	C642.999451,1.000000 1281.999390,1.000000 1920.999512,1.000000 
	C1920.999634,360.999664 1920.999634,720.999329 1920.999756,1080.999512 
	C1734.166626,1081.000000 1547.333374,1081.000000 1360.000000,1081.000000 
M391.500000,944.172913 
	C845.653076,944.172852 1299.806152,944.162292 1753.959229,944.218811 
	C1769.025391,944.220703 1783.813110,942.773254 1798.448486,939.077148 
	C1831.216431,930.802002 1858.077759,913.322205 1879.294800,887.242371 
	C1903.127686,857.947510 1913.712402,824.098999 1913.657715,786.462036 
	C1913.489990,670.797791 1913.614380,555.133118 1913.556763,439.468689 
	C1913.552979,431.813293 1913.520874,424.089203 1912.563477,416.515717 
	C1909.604736,393.110474 1902.044678,371.267883 1889.162354,351.369293 
	C1874.664185,328.974457 1855.694458,311.382080 1832.203491,298.813446 
	C1808.338379,286.044617 1782.508667,281.318268 1755.701782,281.315704 
	C1458.374023,281.287415 1161.046265,281.296570 863.718567,281.316956 
	C860.894165,281.317139 858.057556,281.488037 855.247437,281.779816 
	C837.192505,283.654297 827.323486,305.051941 837.613098,319.937927 
	C843.918396,329.059814 853.067749,331.950195 863.608643,331.949860 
	C1160.269775,331.940399 1456.930786,331.942017 1753.591919,331.946136 
	C1757.091553,331.946198 1760.591553,331.973022 1764.090576,332.036072 
	C1789.728149,332.497833 1811.644653,341.973267 1830.243774,359.424835 
	C1852.178345,380.006134 1863.073853,405.291107 1863.001343,435.430084 
	C1862.883789,484.262177 1862.988037,533.094788 1862.975708,581.927185 
	C1862.957886,652.925598 1863.394531,723.928650 1862.694824,794.920410 
	C1862.331543,831.780457 1843.986816,859.413940 1813.457764,879.012329 
	C1796.191772,890.096436 1776.767822,893.879456 1756.345215,893.877075 
	C1225.521851,893.813965 694.698547,893.827148 163.875198,893.826538 
	C162.041916,893.826538 160.207108,893.864807 158.375580,893.805725 
	C140.315674,893.223450 122.974518,889.706055 107.390007,880.136353 
	C72.968040,858.999512 55.697121,828.322815 55.726551,787.700256 
	C55.846699,621.870178 55.722202,456.039825 55.917526,290.209839 
	C55.928787,280.650391 57.165554,270.916840 59.209892,261.565552 
	C68.355057,219.733368 109.947487,185.186600 152.760742,184.963593 
	C246.755981,184.473999 340.755127,184.732208 434.752686,184.733261 
	C437.216583,184.733292 439.785339,184.938690 442.127380,185.641159 
	C457.186920,190.158127 465.667877,201.962891 465.796021,218.684692 
	C465.918640,234.683456 465.826843,250.683899 465.824219,266.683594 
	C465.823059,273.916656 465.817505,273.929108 458.619354,273.929626 
	C405.120361,273.933289 351.621368,273.916962 298.122375,273.936432 
	C256.123627,273.951752 214.124619,274.103912 172.126251,273.993988 
	C158.398758,273.958038 145.801559,277.394867 134.261032,284.696716 
	C109.766121,300.194977 95.477768,322.204071 95.314789,351.413910 
	C94.859123,433.076508 95.046196,514.743652 95.316963,596.407837 
	C95.345177,604.916931 96.592857,613.730530 99.046852,621.868469 
	C108.613792,653.594299 140.440826,677.855530 173.811188,677.847351 
	C262.642853,677.825500 351.474487,677.840210 440.306152,677.839783 
	C480.638733,677.839600 520.971436,677.785400 561.303833,677.870728 
	C572.616821,677.894653 583.779419,676.337585 593.919006,671.644165 
	C625.821838,656.876953 643.463440,631.798645 643.658813,596.355591 
	C644.100830,516.192810 643.986816,436.025085 643.575256,355.862061 
	C643.523315,345.748108 641.575867,335.230896 638.353271,325.622833 
	C628.279297,295.587738 596.417908,273.281189 566.344788,273.960297 
	C551.686890,274.291260 537.010742,273.779083 522.349731,274.036285 
	C517.564575,274.120239 515.998169,272.732788 516.051880,267.870605 
	C516.257996,249.207321 516.408203,230.530304 515.873962,211.878586 
	C515.667053,204.655869 514.443054,197.207367 512.208679,190.341278 
	C501.918762,158.720261 470.687225,133.987091 435.232147,134.090836 
	C341.734894,134.364426 248.236374,134.184875 154.738403,134.251938 
	C123.925194,134.274033 95.843605,143.999710 71.179291,161.676010 
	C28.043961,192.590073 5.464443,235.282761 5.357314,288.531586 
	C5.021342,455.527771 5.197271,622.525024 5.329789,789.521851 
	C5.337155,798.804565 5.954701,808.231567 7.636739,817.342468 
	C13.962200,851.604858 29.850729,880.724915 55.765858,904.275085 
	C83.515724,929.492554 116.287636,943.385925 153.508606,943.797668 
	C232.497452,944.671448 311.501923,944.132751 391.500000,944.172913 
M1517.238892,867.786621 
	C1517.549805,867.667358 1517.851929,867.513000 1518.172729,867.433777 
	C1552.695801,858.908752 1577.926392,828.354492 1578.738159,792.821106 
	C1579.373291,765.021301 1578.894165,737.196838 1579.050171,709.384216 
	C1579.070435,705.776611 1577.701172,704.932922 1574.337280,704.938599 
	C1523.705933,705.024231 1473.074463,705.032104 1422.443237,704.926392 
	C1418.832031,704.918823 1417.936401,706.181641 1417.952393,709.554688 
	C1418.084839,737.534424 1417.752075,765.521362 1418.319458,793.490723 
	C1418.478271,801.315613 1420.121216,809.479980 1422.867798,816.820862 
	C1437.457031,855.813416 1475.641235,876.466003 1517.238892,867.786621 
M1147.500000,705.302307 
	C1140.333862,705.302368 1133.162354,705.471619 1126.003784,705.240112 
	C1121.596558,705.097534 1119.794922,706.414062 1119.878662,711.193359 
	C1120.149902,726.687378 1119.996338,742.189148 1119.957886,757.687805 
	C1119.953247,759.536133 1119.649780,761.383728 1119.383667,764.363892 
	C1092.316528,743.254639 1066.247681,722.923889 1039.314087,701.918762 
	C1039.115234,704.849731 1038.950195,706.150513 1038.949829,707.451233 
	C1038.936646,758.947144 1038.989136,810.443237 1038.842651,861.938782 
	C1038.830811,866.107788 1040.293945,866.908813 1044.037720,866.901733 
	C1094.533569,866.806152 1145.029663,866.840027 1195.525635,866.822693 
	C1196.969360,866.822144 1198.412964,866.610840 1199.851562,866.498169 
	C1200.020020,865.419739 1200.210205,864.769348 1200.210449,864.119019 
	C1200.227905,812.623108 1200.200684,761.127136 1200.296509,709.631409 
	C1200.303345,705.929382 1198.762573,705.224792 1195.495850,705.250122 
	C1179.831299,705.371582 1164.165405,705.303528 1147.500000,705.302307 
M779.502014,705.304504 
	C775.171570,705.304443 770.819702,705.575012 766.516418,705.233093 
	C761.585266,704.841309 760.231262,706.852783 760.243896,711.596741 
	C760.376953,761.562805 760.367432,811.529419 760.249512,861.495544 
	C760.239868,865.591980 761.391785,866.955566 765.595520,866.921814 
	C788.078918,866.741089 810.564636,866.842163 833.049500,866.824219 
	C834.654297,866.822937 836.258972,866.648926 838.280762,866.530884 
	C838.280762,858.888489 838.280701,851.749023 838.280762,844.609558 
	C838.280884,836.828613 838.283752,836.850647 845.771606,835.868164 
	C847.416199,835.652405 849.034912,835.231384 850.661072,834.883911 
	C874.542236,829.779419 891.283569,815.719971 899.455200,792.972473 
	C908.070129,768.991455 903.459351,746.591919 886.569763,727.366394 
	C872.878418,711.781494 854.839172,705.477783 834.464661,705.333130 
	C816.477661,705.205444 798.489014,705.305481 779.502014,705.304504 
M1345.500000,785.904846 
	C1333.947021,785.904846 1322.394043,785.904846 1309.523804,785.904846 
	C1314.916016,776.470276 1319.555054,768.289429 1324.255127,760.143738 
	C1332.645142,745.602722 1341.087891,731.092102 1349.467163,716.544983 
	C1350.788574,714.251038 1352.448486,712.058044 1348.506226,710.146484 
	C1326.330444,699.393738 1303.444336,697.315979 1280.288086,705.758179 
	C1235.892944,721.943726 1213.534424,770.414856 1228.890381,814.190369 
	C1244.681641,859.207275 1293.891235,882.379517 1338.662231,865.895203 
	C1367.462158,855.291199 1385.189331,834.174011 1392.508179,804.468933 
	C1393.946289,798.631958 1394.160645,792.493469 1395.015869,785.904724 
	C1378.095459,785.904724 1362.297729,785.904724 1345.500000,785.904846 
M425.493652,786.187439 
	C428.326874,786.187378 431.160095,786.185974 433.993317,786.187561 
	C440.914581,786.191406 440.920624,786.192017 440.921478,792.899841 
	C440.924347,815.899170 441.005890,838.899048 440.841309,861.897156 
	C440.813660,865.763611 441.784668,867.063416 445.832886,867.032043 
	C469.330750,866.850037 492.831909,866.824219 516.329102,867.045959 
	C520.867859,867.088806 521.890442,865.616028 521.854736,861.326416 
	C521.660461,837.995422 521.832275,814.661499 521.694031,791.329712 
	C521.671143,787.463257 522.805054,785.970764 526.807495,786.115112 
	C533.964600,786.373047 541.142273,786.036438 548.302246,786.252136 
	C551.765930,786.356384 552.943298,785.247925 552.925049,781.717041 
	C552.801819,757.885010 552.809326,734.051880 552.916565,710.219727 
	C552.932678,706.636169 551.916260,705.224731 548.093994,705.233704 
	C502.928925,705.339966 457.763458,705.334778 412.598297,705.243713 
	C408.796082,705.236084 407.741638,706.721802 407.756897,710.293823 
	C407.857910,733.959351 407.868927,757.625854 407.744995,781.291199 
	C407.726196,784.879333 408.642609,786.514160 412.501129,786.247742 
	C416.482025,785.972839 420.496674,786.187256 425.493652,786.187439 
M1652.500000,705.298523 
	C1635.837158,705.298462 1619.174316,705.270813 1602.511597,705.316345 
	C1597.897827,705.328979 1597.479614,706.109558 1599.727783,710.138062 
	C1613.011353,733.942505 1626.389648,757.694824 1639.513306,781.586975 
	C1641.105957,784.486633 1642.088867,788.113647 1642.120239,791.415283 
	C1642.340942,814.574463 1642.339233,837.737610 1642.148438,860.897278 
	C1642.112061,865.328979 1643.116455,867.000061 1647.928589,866.950134 
	C1671.254028,866.708069 1694.583984,866.755554 1717.910645,866.924622 
	C1721.812500,866.952942 1723.053833,865.949036 1723.021118,861.911133 
	C1722.834229,838.751404 1722.796753,815.587769 1723.063843,792.429565 
	C1723.107422,788.646973 1724.206665,784.493958 1726.027344,781.175842 
	C1738.899048,757.718140 1752.100098,734.441223 1765.143555,711.077271 
	C1766.025513,709.497559 1766.480835,707.679626 1767.392456,705.299011 
	C1728.771606,705.299011 1691.135742,705.299011 1652.500000,705.298523 
M608.975159,775.579102 
	C614.343384,782.706299 615.451172,790.732971 615.262207,799.520508 
	C614.821960,819.995667 615.121643,840.486694 615.121643,860.971313 
	C615.121643,862.742004 615.121704,864.512695 615.121704,866.430969 
	C616.566833,866.622253 617.363220,866.819275 618.159790,866.819824 
	C642.641357,866.837769 667.123230,866.778015 691.604187,866.898987 
	C695.413635,866.917786 695.899780,865.101807 695.889282,861.959595 
	C695.809937,838.144409 695.773621,814.328369 695.943726,790.514160 
	C695.964050,787.670044 696.749390,784.528259 698.121460,782.044434 
	C710.332397,759.938843 722.767334,737.957153 735.101746,715.919617 
	C736.824036,712.842407 738.358765,709.660278 740.316772,705.876587 
	C683.198853,705.876587 627.164429,705.876587 570.046814,705.876587 
	C583.230530,729.498291 595.913086,752.221985 608.975159,775.579102 
M927.011353,851.495728 
	C927.011353,856.425659 927.011353,861.355591 927.011353,866.569641 
	C929.354736,866.682556 930.987671,866.828796 932.620728,866.829773 
	C956.949036,866.844482 981.278198,866.736572 1005.604858,866.935791 
	C1009.944336,866.971313 1011.240723,865.876282 1011.225952,861.391785 
	C1011.061829,811.402710 1011.058411,761.412659 1011.224182,711.423584 
	C1011.240295,706.562317 1009.785767,705.163513 1004.998718,705.204773 
	C981.005432,705.411987 957.008240,705.427429 933.015442,705.195007 
	C928.055420,705.146912 926.903015,706.836792 926.918579,711.526733 
	C927.072205,757.849976 927.011353,804.173889 927.011353,851.495728 
z"/>
<path fill="#2497F3" opacity="1.000000" stroke="none" 
	d="
M391.000000,944.172974 
	C311.501923,944.132751 232.497452,944.671448 153.508606,943.797668 
	C116.287636,943.385925 83.515724,929.492554 55.765858,904.275085 
	C29.850729,880.724915 13.962200,851.604858 7.636739,817.342468 
	C5.954701,808.231567 5.337155,798.804565 5.329789,789.521851 
	C5.197271,622.525024 5.021342,455.527771 5.357314,288.531586 
	C5.464443,235.282761 28.043961,192.590073 71.179291,161.676010 
	C95.843605,143.999710 123.925194,134.274033 154.738403,134.251938 
	C248.236374,134.184875 341.734894,134.364426 435.232147,134.090836 
	C470.687225,133.987091 501.918762,158.720261 512.208679,190.341278 
	C514.443054,197.207367 515.667053,204.655869 515.873962,211.878586 
	C516.408203,230.530304 516.257996,249.207321 516.051880,267.870605 
	C515.998169,272.732788 517.564575,274.120239 522.349731,274.036285 
	C537.010742,273.779083 551.686890,274.291260 566.344788,273.960297 
	C596.417908,273.281189 628.279297,295.587738 638.353271,325.622833 
	C641.575867,335.230896 643.523315,345.748108 643.575256,355.862061 
	C643.986816,436.025085 644.100830,516.192810 643.658813,596.355591 
	C643.463440,631.798645 625.821838,656.876953 593.919006,671.644165 
	C583.779419,676.337585 572.616821,677.894653 561.303833,677.870728 
	C520.971436,677.785400 480.638733,677.839600 440.306152,677.839783 
	C351.474487,677.840210 262.642853,677.825500 173.811188,677.847351 
	C140.440826,677.855530 108.613792,653.594299 99.046852,621.868469 
	C96.592857,613.730530 95.345177,604.916931 95.316963,596.407837 
	C95.046196,514.743652 94.859123,433.076508 95.314789,351.413910 
	C95.477768,322.204071 109.766121,300.194977 134.261032,284.696716 
	C145.801559,277.394867 158.398758,273.958038 172.126251,273.993988 
	C214.124619,274.103912 256.123627,273.951752 298.122375,273.936432 
	C351.621368,273.916962 405.120361,273.933289 458.619354,273.929626 
	C465.817505,273.929108 465.823059,273.916656 465.824219,266.683594 
	C465.826843,250.683899 465.918640,234.683456 465.796021,218.684692 
	C465.667877,201.962891 457.186920,190.158127 442.127380,185.641159 
	C439.785339,184.938690 437.216583,184.733292 434.752686,184.733261 
	C340.755127,184.732208 246.755981,184.473999 152.760742,184.963593 
	C109.947487,185.186600 68.355057,219.733368 59.209892,261.565552 
	C57.165554,270.916840 55.928787,280.650391 55.917526,290.209839 
	C55.722202,456.039825 55.846699,621.870178 55.726551,787.700256 
	C55.697121,828.322815 72.968040,858.999512 107.390007,880.136353 
	C122.974518,889.706055 140.315674,893.223450 158.375580,893.805725 
	C160.207108,893.864807 162.041916,893.826538 163.875198,893.826538 
	C694.698547,893.827148 1225.521851,893.813965 1756.345215,893.877075 
	C1776.767822,893.879456 1796.191772,890.096436 1813.457764,879.012329 
	C1843.986816,859.413940 1862.331543,831.780457 1862.694824,794.920410 
	C1863.394531,723.928650 1862.957886,652.925598 1862.975708,581.927185 
	C1862.988037,533.094788 1862.883789,484.262177 1863.001343,435.430084 
	C1863.073853,405.291107 1852.178345,380.006134 1830.243774,359.424835 
	C1811.644653,341.973267 1789.728149,332.497833 1764.090576,332.036072 
	C1760.591553,331.973022 1757.091553,331.946198 1753.591919,331.946136 
	C1456.930786,331.942017 1160.269775,331.940399 863.608643,331.949860 
	C853.067749,331.950195 843.918396,329.059814 837.613098,319.937927 
	C827.323486,305.051941 837.192505,283.654297 855.247437,281.779816 
	C858.057556,281.488037 860.894165,281.317139 863.718567,281.316956 
	C1161.046265,281.296570 1458.374023,281.287415 1755.701782,281.315704 
	C1782.508667,281.318268 1808.338379,286.044617 1832.203491,298.813446 
	C1855.694458,311.382080 1874.664185,328.974457 1889.162354,351.369293 
	C1902.044678,371.267883 1909.604736,393.110474 1912.563477,416.515717 
	C1913.520874,424.089203 1913.552979,431.813293 1913.556763,439.468689 
	C1913.614380,555.133118 1913.489990,670.797791 1913.657715,786.462036 
	C1913.712402,824.098999 1903.127686,857.947510 1879.294800,887.242371 
	C1858.077759,913.322205 1831.216431,930.802002 1798.448486,939.077148 
	C1783.813110,942.773254 1769.025391,944.220703 1753.959229,944.218811 
	C1299.806152,944.162292 845.653076,944.172852 391.000000,944.172974 
M496.500000,310.929779 
	C391.027954,310.930023 285.555847,310.882965 180.084045,311.046906 
	C173.699692,311.056824 166.848587,311.560883 161.021698,313.870789 
	C142.436020,321.238678 132.932648,335.402557 132.883789,355.588470 
	C132.847504,370.584442 132.868378,385.580536 132.868805,400.576599 
	C132.870636,465.559479 133.238083,530.545532 132.676468,595.523560 
	C132.484512,617.733765 151.195724,640.183960 176.070450,640.127625 
	C304.535980,639.836548 433.002594,640.042053 561.468750,639.952087 
	C587.234253,639.934021 605.990601,621.278320 606.039673,595.486877 
	C606.191650,515.674866 606.210144,435.861938 605.901184,356.050812 
	C605.874268,349.118103 604.259705,341.629333 601.307739,335.378723 
	C593.425171,318.687622 579.016418,311.261017 560.982300,311.005127 
	C539.825439,310.704956 518.661072,310.931549 496.500000,310.929779 
z"/>
<path fill="#2397F3" opacity="1.000000" stroke="none" 
	d="
M1516.839722,867.910828 
	C1475.641235,876.466003 1437.457031,855.813416 1422.867798,816.820862 
	C1420.121216,809.479980 1418.478271,801.315613 1418.319458,793.490723 
	C1417.752075,765.521362 1418.084839,737.534424 1417.952393,709.554688 
	C1417.936401,706.181641 1418.832031,704.918823 1422.443237,704.926392 
	C1473.074463,705.032104 1523.705933,705.024231 1574.337280,704.938599 
	C1577.701172,704.932922 1579.070435,705.776611 1579.050171,709.384216 
	C1578.894165,737.196838 1579.373291,765.021301 1578.738159,792.821106 
	C1577.926392,828.354492 1552.695801,858.908752 1518.172729,867.433777 
	C1517.851929,867.513000 1517.549805,867.667358 1516.839722,867.910828 
z"/>
<path fill="#2397F3" opacity="1.000000" stroke="none" 
	d="
M1148.000000,705.302551 
	C1164.165405,705.303528 1179.831299,705.371582 1195.495850,705.250122 
	C1198.762573,705.224792 1200.303345,705.929382 1200.296509,709.631409 
	C1200.200684,761.127136 1200.227905,812.623108 1200.210449,864.119019 
	C1200.210205,864.769348 1200.020020,865.419739 1199.851562,866.498169 
	C1198.412964,866.610840 1196.969360,866.822144 1195.525635,866.822693 
	C1145.029663,866.840027 1094.533569,866.806152 1044.037720,866.901733 
	C1040.293945,866.908813 1038.830811,866.107788 1038.842651,861.938782 
	C1038.989136,810.443237 1038.936646,758.947144 1038.949829,707.451233 
	C1038.950195,706.150513 1039.115234,704.849731 1039.314087,701.918762 
	C1066.247681,722.923889 1092.316528,743.254639 1119.383667,764.363892 
	C1119.649780,761.383728 1119.953247,759.536133 1119.957886,757.687805 
	C1119.996338,742.189148 1120.149902,726.687378 1119.878662,711.193359 
	C1119.794922,706.414062 1121.596558,705.097534 1126.003784,705.240112 
	C1133.162354,705.471619 1140.333862,705.302368 1148.000000,705.302551 
z"/>
<path fill="#2397F3" opacity="1.000000" stroke="none" 
	d="
M780.001587,705.304810 
	C798.489014,705.305481 816.477661,705.205444 834.464661,705.333130 
	C854.839172,705.477783 872.878418,711.781494 886.569763,727.366394 
	C903.459351,746.591919 908.070129,768.991455 899.455200,792.972473 
	C891.283569,815.719971 874.542236,829.779419 850.661072,834.883911 
	C849.034912,835.231384 847.416199,835.652405 845.771606,835.868164 
	C838.283752,836.850647 838.280884,836.828613 838.280762,844.609558 
	C838.280701,851.749023 838.280762,858.888489 838.280762,866.530884 
	C836.258972,866.648926 834.654297,866.822937 833.049500,866.824219 
	C810.564636,866.842163 788.078918,866.741089 765.595520,866.921814 
	C761.391785,866.955566 760.239868,865.591980 760.249512,861.495544 
	C760.367432,811.529419 760.376953,761.562805 760.243896,711.596741 
	C760.231262,706.852783 761.585266,704.841309 766.516418,705.233093 
	C770.819702,705.575012 775.171570,705.304443 780.001587,705.304810 
z"/>
<path fill="#2397F3" opacity="1.000000" stroke="none" 
	d="
M1346.000000,785.904785 
	C1362.297729,785.904724 1378.095459,785.904724 1395.015869,785.904724 
	C1394.160645,792.493469 1393.946289,798.631958 1392.508179,804.468933 
	C1385.189331,834.174011 1367.462158,855.291199 1338.662231,865.895203 
	C1293.891235,882.379517 1244.681641,859.207275 1228.890381,814.190369 
	C1213.534424,770.414856 1235.892944,721.943726 1280.288086,705.758179 
	C1303.444336,697.315979 1326.330444,699.393738 1348.506226,710.146484 
	C1352.448486,712.058044 1350.788574,714.251038 1349.467163,716.544983 
	C1341.087891,731.092102 1332.645142,745.602722 1324.255127,760.143738 
	C1319.555054,768.289429 1314.916016,776.470276 1309.523804,785.904846 
	C1322.394043,785.904846 1333.947021,785.904846 1346.000000,785.904785 
z"/>
<path fill="#2397F3" opacity="1.000000" stroke="none" 
	d="
M424.995117,786.187500 
	C420.496674,786.187256 416.482025,785.972839 412.501129,786.247742 
	C408.642609,786.514160 407.726196,784.879333 407.744995,781.291199 
	C407.868927,757.625854 407.857910,733.959351 407.756897,710.293823 
	C407.741638,706.721802 408.796082,705.236084 412.598297,705.243713 
	C457.763458,705.334778 502.928925,705.339966 548.093994,705.233704 
	C551.916260,705.224731 552.932678,706.636169 552.916565,710.219727 
	C552.809326,734.051880 552.801819,757.885010 552.925049,781.717041 
	C552.943298,785.247925 551.765930,786.356384 548.302246,786.252136 
	C541.142273,786.036438 533.964600,786.373047 526.807495,786.115112 
	C522.805054,785.970764 521.671143,787.463257 521.694031,791.329712 
	C521.832275,814.661499 521.660461,837.995422 521.854736,861.326416 
	C521.890442,865.616028 520.867859,867.088806 516.329102,867.045959 
	C492.831909,866.824219 469.330750,866.850037 445.832886,867.032043 
	C441.784668,867.063416 440.813660,865.763611 440.841309,861.897156 
	C441.005890,838.899048 440.924347,815.899170 440.921478,792.899841 
	C440.920624,786.192017 440.914581,786.191406 433.993317,786.187561 
	C431.160095,786.185974 428.326874,786.187378 424.995117,786.187500 
z"/>
<path fill="#2497F3" opacity="1.000000" stroke="none" 
	d="
M1653.000000,705.298767 
	C1691.135742,705.299011 1728.771606,705.299011 1767.392456,705.299011 
	C1766.480835,707.679626 1766.025513,709.497559 1765.143555,711.077271 
	C1752.100098,734.441223 1738.899048,757.718140 1726.027344,781.175842 
	C1724.206665,784.493958 1723.107422,788.646973 1723.063843,792.429565 
	C1722.796753,815.587769 1722.834229,838.751404 1723.021118,861.911133 
	C1723.053833,865.949036 1721.812500,866.952942 1717.910645,866.924622 
	C1694.583984,866.755554 1671.254028,866.708069 1647.928589,866.950134 
	C1643.116455,867.000061 1642.112061,865.328979 1642.148438,860.897278 
	C1642.339233,837.737610 1642.340942,814.574463 1642.120239,791.415283 
	C1642.088867,788.113647 1641.105957,784.486633 1639.513306,781.586975 
	C1626.389648,757.694824 1613.011353,733.942505 1599.727783,710.138062 
	C1597.479614,706.109558 1597.897827,705.328979 1602.511597,705.316345 
	C1619.174316,705.270813 1635.837158,705.298462 1653.000000,705.298767 
z"/>
<path fill="#2497F3" opacity="1.000000" stroke="none" 
	d="
M608.785400,775.262451 
	C595.913086,752.221985 583.230530,729.498291 570.046814,705.876587 
	C627.164429,705.876587 683.198853,705.876587 740.316772,705.876587 
	C738.358765,709.660278 736.824036,712.842407 735.101746,715.919617 
	C722.767334,737.957153 710.332397,759.938843 698.121460,782.044434 
	C696.749390,784.528259 695.964050,787.670044 695.943726,790.514160 
	C695.773621,814.328369 695.809937,838.144409 695.889282,861.959595 
	C695.899780,865.101807 695.413635,866.917786 691.604187,866.898987 
	C667.123230,866.778015 642.641357,866.837769 618.159790,866.819824 
	C617.363220,866.819275 616.566833,866.622253 615.121704,866.430969 
	C615.121704,864.512695 615.121643,862.742004 615.121643,860.971313 
	C615.121643,840.486694 614.821960,819.995667 615.262207,799.520508 
	C615.451172,790.732971 614.343384,782.706299 608.785400,775.262451 
z"/>
<path fill="#2497F3" opacity="1.000000" stroke="none" 
	d="
M927.011353,850.996704 
	C927.011353,804.173889 927.072205,757.849976 926.918579,711.526733 
	C926.903015,706.836792 928.055420,705.146912 933.015442,705.195007 
	C957.008240,705.427429 981.005432,705.411987 1004.998718,705.204773 
	C1009.785767,705.163513 1011.240295,706.562317 1011.224182,711.423584 
	C1011.058411,761.412659 1011.061829,811.402710 1011.225952,861.391785 
	C1011.240723,865.876282 1009.944336,866.971313 1005.604858,866.935791 
	C981.278198,866.736572 956.949036,866.844482 932.620728,866.829773 
	C930.987671,866.828796 929.354736,866.682556 927.011353,866.569641 
	C927.011353,861.355591 927.011353,856.425659 927.011353,850.996704 
z"/>
<path fill="#FDFEFF" opacity="1.000000" stroke="none" 
	d="
M497.000000,310.929749 
	C518.661072,310.931549 539.825439,310.704956 560.982300,311.005127 
	C579.016418,311.261017 593.425171,318.687622 601.307739,335.378723 
	C604.259705,341.629333 605.874268,349.118103 605.901184,356.050812 
	C606.210144,435.861938 606.191650,515.674866 606.039673,595.486877 
	C605.990601,621.278320 587.234253,639.934021 561.468750,639.952087 
	C433.002594,640.042053 304.535980,639.836548 176.070450,640.127625 
	C151.195724,640.183960 132.484512,617.733765 132.676468,595.523560 
	C133.238083,530.545532 132.870636,465.559479 132.868805,400.576599 
	C132.868378,385.580536 132.847504,370.584442 132.883789,355.588470 
	C132.932648,335.402557 142.436020,321.238678 161.021698,313.870789 
	C166.848587,311.560883 173.699692,311.056824 180.084045,311.046906 
	C285.555847,310.882965 391.027954,310.930023 497.000000,310.929749 
M505.785645,604.161743 
	C514.264160,604.585083 520.138428,600.366333 523.948914,593.282166 
	C527.717773,586.275513 527.241455,578.820557 523.104492,572.310547 
	C518.299866,564.749939 510.497437,562.278748 501.812714,563.057556 
	C490.716217,564.052673 479.668182,565.625244 468.563293,566.482788 
	C446.001404,568.225037 423.430786,570.612915 400.835480,570.976135 
	C370.878906,571.457581 340.880249,570.677734 310.929321,569.609070 
	C294.831055,569.034729 278.794281,566.728149 262.730621,565.194336 
	C252.635025,564.230408 242.542145,562.496948 232.445969,562.481567 
	C221.557953,562.464966 213.997406,570.688721 213.112946,581.523010 
	C212.326050,591.162231 219.150192,600.682251 229.208557,602.588684 
	C238.336990,604.318787 247.638626,605.293579 256.907745,606.093262 
	C284.420410,608.467041 311.919403,611.600769 339.489227,612.564514 
	C376.928131,613.873352 414.431915,613.542664 451.793060,609.775696 
	C469.504120,607.989990 487.204742,606.100830 505.785645,604.161743 
M511.234772,497.376862 
	C518.305847,502.439087 526.286621,502.692963 534.161377,500.652710 
	C543.645325,498.195526 551.902283,487.707642 552.390625,477.870667 
	C552.911743,467.373383 549.206177,458.519958 539.811829,453.027954 
	C529.728088,447.132965 518.527771,448.018463 509.862823,454.648163 
	C497.628021,464.009247 495.299835,485.281097 511.234772,497.376862 
M274.052856,456.549652 
	C266.692352,464.924438 263.638428,474.380096 268.092377,485.039337 
	C274.283905,499.856964 287.161835,504.807129 301.571686,500.201752 
	C315.346802,495.799255 322.220947,479.619293 317.090881,466.474304 
	C310.065887,448.473877 289.669525,443.490173 274.052856,456.549652 
M288.818390,371.832581 
	C271.753784,374.156006 261.689636,391.116547 268.131317,407.548340 
	C273.446320,421.106171 286.762238,427.307281 300.257996,423.005768 
	C315.722076,418.076874 321.632965,403.718445 317.471649,389.623383 
	C314.621582,379.969666 305.829407,370.491180 288.818390,371.832581 
M354.910858,497.692474 
	C359.972992,498.979431 364.999512,501.171570 370.104370,501.372467 
	C382.214600,501.849030 391.342194,494.114807 394.855103,481.576935 
	C397.645721,471.616943 392.791443,458.994476 384.092133,453.590393 
	C373.516449,447.020660 360.837219,447.944336 352.064514,455.526184 
	C340.879456,465.192963 339.005890,485.854980 354.910858,497.692474 
M369.497620,424.006195 
	C384.361267,423.758820 395.769287,412.353729 395.701599,397.808929 
	C395.635529,383.614044 384.492889,371.902649 370.974823,371.819977 
	C355.091888,371.722870 343.644592,381.614746 343.430206,395.621918 
	C343.173645,412.386749 353.104279,423.593781 369.497620,424.006195 
M522.773254,371.828705 
	C506.525574,373.857544 497.117737,387.985046 500.647705,404.502350 
	C502.835205,414.738037 513.269165,425.877838 530.292175,423.990631 
	C540.523376,422.856415 550.544250,412.687225 552.256165,401.239624 
	C554.209473,388.177826 544.011108,369.835358 522.773254,371.828705 
M187.001587,398.445312 
	C186.061981,411.541016 199.973007,425.151276 214.180206,424.182709 
	C228.476227,423.208130 239.214233,412.464111 239.172104,397.387787 
	C239.133286,383.499695 228.341934,371.945618 215.294159,371.822174 
	C198.218155,371.660645 187.307785,381.575043 187.001587,398.445312 
M469.846466,463.765839 
	C462.773712,450.297638 447.630798,445.310425 434.230103,452.119507 
	C420.558594,459.066193 417.292572,473.754608 422.936554,486.796783 
	C429.219452,501.315369 443.440826,505.013885 456.859650,499.639923 
	C470.698517,494.097748 475.417206,479.901093 469.846466,463.765839 
M235.367050,489.732117 
	C245.110565,472.976532 236.528824,452.518555 216.754791,449.364166 
	C204.138351,447.351562 192.819962,454.689484 188.297012,467.016113 
	C184.226273,478.110291 188.849060,491.226105 199.193893,497.932922 
	C210.586700,505.319092 224.403900,502.378876 235.367050,489.732117 
M425.420319,381.980225 
	C419.233673,389.874725 419.341461,399.041077 422.211456,407.608612 
	C426.353363,419.972900 439.651428,426.423065 452.513885,423.751129 
	C463.992065,421.366760 472.090851,410.530914 472.037659,397.629120 
	C471.984741,384.795227 466.337646,376.458130 454.018463,372.684631 
	C444.786987,369.856873 432.396484,371.989014 425.420319,381.980225 
z"/>
<path fill="#2598F3" opacity="1.000000" stroke="none" 
	d="
M505.347870,604.210144 
	C487.204742,606.100830 469.504120,607.989990 451.793060,609.775696 
	C414.431915,613.542664 376.928131,613.873352 339.489227,612.564514 
	C311.919403,611.600769 284.420410,608.467041 256.907745,606.093262 
	C247.638626,605.293579 238.336990,604.318787 229.208557,602.588684 
	C219.150192,600.682251 212.326050,591.162231 213.112946,581.523010 
	C213.997406,570.688721 221.557953,562.464966 232.445969,562.481567 
	C242.542145,562.496948 252.635025,564.230408 262.730621,565.194336 
	C278.794281,566.728149 294.831055,569.034729 310.929321,569.609070 
	C340.880249,570.677734 370.878906,571.457581 400.835480,570.976135 
	C423.430786,570.612915 446.001404,568.225037 468.563293,566.482788 
	C479.668182,565.625244 490.716217,564.052673 501.812714,563.057556 
	C510.497437,562.278748 518.299866,564.749939 523.104492,572.310547 
	C527.241455,578.820557 527.717773,586.275513 523.948914,593.282166 
	C520.138428,600.366333 514.264160,604.585083 505.347870,604.210144 
z"/>
<path fill="#2799F3" opacity="1.000000" stroke="none" 
	d="
M510.958740,497.141205 
	C495.299835,485.281097 497.628021,464.009247 509.862823,454.648163 
	C518.527771,448.018463 529.728088,447.132965 539.811829,453.027954 
	C549.206177,458.519958 552.911743,467.373383 552.390625,477.870667 
	C551.902283,487.707642 543.645325,498.195526 534.161377,500.652710 
	C526.286621,502.692963 518.305847,502.439087 510.958740,497.141205 
z"/>
<path fill="#2698F3" opacity="1.000000" stroke="none" 
	d="
M274.329834,456.321655 
	C289.669525,443.490173 310.065887,448.473877 317.090881,466.474304 
	C322.220947,479.619293 315.346802,495.799255 301.571686,500.201752 
	C287.161835,504.807129 274.283905,499.856964 268.092377,485.039337 
	C263.638428,474.380096 266.692352,464.924438 274.329834,456.321655 
z"/>
<path fill="#2699F3" opacity="1.000000" stroke="none" 
	d="
M289.275940,371.828583 
	C305.829407,370.491180 314.621582,379.969666 317.471649,389.623383 
	C321.632965,403.718445 315.722076,418.076874 300.257996,423.005768 
	C286.762238,427.307281 273.446320,421.106171 268.131317,407.548340 
	C261.689636,391.116547 271.753784,374.156006 289.275940,371.828583 
z"/>
<path fill="#2698F3" opacity="1.000000" stroke="none" 
	d="
M354.610474,497.488220 
	C339.005890,485.854980 340.879456,465.192963 352.064514,455.526184 
	C360.837219,447.944336 373.516449,447.020660 384.092133,453.590393 
	C392.791443,458.994476 397.645721,471.616943 394.855103,481.576935 
	C391.342194,494.114807 382.214600,501.849030 370.104370,501.372467 
	C364.999512,501.171570 359.972992,498.979431 354.610474,497.488220 
z"/>
<path fill="#2699F3" opacity="1.000000" stroke="none" 
	d="
M369.038483,424.004883 
	C353.104279,423.593781 343.173645,412.386749 343.430206,395.621918 
	C343.644592,381.614746 355.091888,371.722870 370.974823,371.819977 
	C384.492889,371.902649 395.635529,383.614044 395.701599,397.808929 
	C395.769287,412.353729 384.361267,423.758820 369.038483,424.004883 
z"/>
<path fill="#2699F3" opacity="1.000000" stroke="none" 
	d="
M523.233765,371.825867 
	C544.011108,369.835358 554.209473,388.177826 552.256165,401.239624 
	C550.544250,412.687225 540.523376,422.856415 530.292175,423.990631 
	C513.269165,425.877838 502.835205,414.738037 500.647705,404.502350 
	C497.117737,387.985046 506.525574,373.857544 523.233765,371.825867 
z"/>
<path fill="#2699F3" opacity="1.000000" stroke="none" 
	d="
M187.001266,397.988922 
	C187.307785,381.575043 198.218155,371.660645 215.294159,371.822174 
	C228.341934,371.945618 239.133286,383.499695 239.172104,397.387787 
	C239.214233,412.464111 228.476227,423.208130 214.180206,424.182709 
	C199.973007,425.151276 186.061981,411.541016 187.001266,397.988922 
z"/>
<path fill="#2799F3" opacity="1.000000" stroke="none" 
	d="
M469.989136,464.129456 
	C475.417206,479.901093 470.698517,494.097748 456.859650,499.639923 
	C443.440826,505.013885 429.219452,501.315369 422.936554,486.796783 
	C417.292572,473.754608 420.558594,459.066193 434.230103,452.119507 
	C447.630798,445.310425 462.773712,450.297638 469.989136,464.129456 
z"/>
<path fill="#2699F3" opacity="1.000000" stroke="none" 
	d="
M235.154724,490.028992 
	C224.403900,502.378876 210.586700,505.319092 199.193893,497.932922 
	C188.849060,491.226105 184.226273,478.110291 188.297012,467.016113 
	C192.819962,454.689484 204.138351,447.351562 216.754791,449.364166 
	C236.528824,452.518555 245.110565,472.976532 235.154724,490.028992 
z"/>
<path fill="#2799F3" opacity="1.000000" stroke="none" 
	d="
M425.650543,381.698425 
	C432.396484,371.989014 444.786987,369.856873 454.018463,372.684631 
	C466.337646,376.458130 471.984741,384.795227 472.037659,397.629120 
	C472.090851,410.530914 463.992065,421.366760 452.513885,423.751129 
	C439.651428,426.423065 426.353363,419.972900 422.211456,407.608612 
	C419.341461,399.041077 419.233673,389.874725 425.650543,381.698425 
z"/>
</svg>