<?xml version="1.0" encoding="UTF-8"?>
<svg version="1.1" xmlns="http://www.w3.org/2000/svg" width="1920" height="1080">
<path d="M0 0 C633.6 0 1267.2 0 1920 0 C1920 356.4 1920 712.8 1920 1080 C1286.4 1080 652.8 1080 0 1080 C0 723.6 0 367.2 0 0 Z " fill="#FEFEFE" transform="translate(0,0)"/>
<path d="M0 0 C1.67538911 -0.00571575 3.35077434 -0.01268462 5.02615356 -0.02079773 C9.53856645 -0.03860909 14.05078362 -0.03758388 18.56322098 -0.03185534 C22.3453315 -0.02874667 26.12740534 -0.03487433 29.90951061 -0.04089409 C38.8378173 -0.05489756 47.76602821 -0.05341232 56.69433594 -0.04199219 C65.87450841 -0.03050868 75.05438881 -0.04460013 84.23452282 -0.07138866 C92.14746995 -0.09360628 100.0603258 -0.10016961 107.97330189 -0.09431225 C112.68579425 -0.09095672 117.39809936 -0.09326399 122.11056519 -0.11056328 C126.54311634 -0.12612801 130.97523731 -0.12197229 135.40777206 -0.10325813 C137.02455442 -0.09959879 138.64136936 -0.10260225 140.25812149 -0.11314392 C155.63140938 -0.20565079 169.24131566 2.58239039 180.96875 13.24780273 C190.19940755 23.10460992 194.30598694 34.40497216 194.13671875 47.71655273 C194.13247391 48.99804199 194.13247391 48.99804199 194.12814331 50.30541992 C194.11704504 53.00511327 194.09196052 55.7044615 194.06640625 58.40405273 C194.05636304 60.24649582 194.04723955 62.08894417 194.0390625 63.93139648 C194.01713975 68.42241268 193.98268271 72.91317441 193.94140625 77.40405273 C195.26362183 77.38048706 195.26362183 77.38048706 196.61254883 77.35644531 C199.93569011 77.30480381 203.25839472 77.2674572 206.58178711 77.23925781 C208.0102417 77.22432623 209.43865173 77.20397335 210.86694336 77.17773438 C226.21491544 76.90318279 240.42056712 79.5085514 252.05859375 90.32202148 C260.68547794 99.86170877 265.03708836 110.81905627 265.08857727 123.6255188 C265.09931023 125.46719887 265.09931023 125.46719887 265.11026001 127.34608459 C265.11309974 128.69369481 265.11581153 130.04130531 265.1184082 131.38891602 C265.12467987 132.81858991 265.13132729 134.2482622 265.13832092 135.67793274 C265.15928205 140.36006553 265.16971664 145.04219835 265.1796875 149.72436523 C265.18373819 151.34184663 265.1878552 152.95932787 265.19203758 154.57680893 C265.2110727 162.17899037 265.2253066 169.78116222 265.23364955 177.38336289 C265.2434125 186.13287542 265.26971436 194.88213434 265.31015044 203.63155758 C265.34039929 210.41142993 265.35512675 217.19122993 265.35843056 223.9711684 C265.36077123 228.01252138 265.36960248 232.05360291 265.39489174 236.09488297 C265.4183315 239.90188933 265.42234268 243.70844857 265.41213036 247.51550865 C265.4116387 248.90373798 265.41784829 250.29199054 265.4316864 251.68015099 C265.54609787 263.84951591 263.33380938 274.53374912 255.94140625 284.40405273 C255.43867187 285.08209961 254.9359375 285.76014648 254.41796875 286.45874023 C246.99637138 295.69218297 236.49004711 300.54057517 224.94140625 302.40405273 C221.87822606 302.5535627 218.81802767 302.54756358 215.75166321 302.54449463 C214.8233968 302.54746575 213.8951304 302.55043687 212.93873471 302.55349803 C209.82674174 302.56217294 206.7147873 302.56369226 203.6027832 302.56518555 C201.37199318 302.56981459 199.14120396 302.57483937 196.91041565 302.58023071 C190.84825045 302.59334878 184.78609633 302.59979857 178.72391915 302.60424137 C174.93558049 302.60717317 171.14724484 302.6112782 167.3589077 302.61574554 C156.86138856 302.62785292 146.36387121 302.63823535 135.86634541 302.64162064 C135.19492127 302.6418402 134.52349713 302.64205977 133.8317268 302.64228599 C132.82223723 302.6426134 132.82223723 302.6426134 131.79235393 302.64294744 C130.42870796 302.64339089 129.06506199 302.64383746 127.70141602 302.64428711 C126.68680168 302.64461925 126.68680168 302.64461925 125.65169009 302.64495811 C114.6979705 302.64890389 103.74431752 302.66635227 92.79062364 302.68964663 C81.53323245 302.71339274 70.27587347 302.72556629 59.0184533 302.72698855 C52.70244675 302.72803603 46.38653418 302.73393169 40.07055092 302.75180817 C34.12716579 302.76830281 28.18394515 302.77043747 22.24054527 302.76166916 C20.06294692 302.76089953 17.88533968 302.76523173 15.70776367 302.77512741 C12.72700379 302.78787524 9.74682398 302.78195452 6.7660675 302.77154541 C5.91147031 302.77960181 5.05687311 302.78765822 4.17637902 302.79595876 C-8.31592018 302.69445675 -18.78732373 297.55506533 -27.87109375 289.09155273 C-38.41001233 277.76916539 -40.51403111 265.50885343 -40.47851562 250.52197266 C-40.48586934 249.044066 -40.49445932 247.56616507 -40.50418091 246.08827209 C-40.52626984 242.10046374 -40.52933394 238.11286279 -40.5274334 234.12500167 C-40.5273131 230.78294041 -40.53590139 227.44092215 -40.54421091 224.09887296 C-40.56339994 216.20667346 -40.56634542 208.31457971 -40.55957031 200.42236328 C-40.55293427 192.31065911 -40.57578648 184.19941019 -40.61288404 176.0877983 C-40.6436854 169.09634211 -40.65492978 162.10503159 -40.65104723 155.113509 C-40.64899031 150.94975659 -40.65429367 146.78635859 -40.67893982 142.62267113 C-40.70137782 138.70305021 -40.69918979 134.78416396 -40.6790123 130.86453819 C-40.675632 129.43642086 -40.68056085 128.00825239 -40.69499588 126.58020401 C-40.83610855 111.56943242 -36.63325435 100.2288076 -26.18359375 89.47436523 C-17.91079015 81.70193282 -9.2329762 78.27553154 2.03450012 78.28379822 C2.7370597 78.28294379 3.43961928 78.28208937 4.16346854 78.28120905 C6.5111048 78.27956556 8.85866918 78.28505706 11.20629883 78.29052734 C12.89174396 78.29080949 14.57718922 78.29065095 16.26263428 78.29008484 C20.83451721 78.28979792 25.40637391 78.29567769 29.97825074 78.3026588 C34.75752775 78.30890981 39.53680535 78.30949752 44.31608582 78.3106842 C53.36470475 78.31379236 62.4133116 78.32199881 71.46192521 78.33203369 C81.76414096 78.34321083 92.06635729 78.34870932 102.3685776 78.35372913 C123.55952723 78.36418184 144.75046598 78.38177131 165.94140625 78.40405273 C165.92189414 73.28040216 165.86990048 68.15844725 165.78881836 63.03540039 C165.7657349 61.29558571 165.75126544 59.55563321 165.74584961 57.81567383 C165.7364886 55.30260285 165.69534758 52.79167072 165.6484375 50.27905273 C165.65433647 49.12699341 165.65433647 49.12699341 165.66035461 47.95166016 C165.50272224 42.01197846 163.59533073 38.06215015 159.94140625 33.40405273 C155.71398367 29.54963803 152.0063273 29.27818044 146.42185974 29.27033997 C145.42404444 29.26694163 145.42404444 29.26694163 144.40607125 29.26347464 C142.17230794 29.25713399 139.9386053 29.25796407 137.70483398 29.25878906 C136.10487286 29.25579746 134.50491245 29.25239493 132.904953 29.24861145 C128.55335447 29.23976364 124.2017756 29.2374329 119.85016894 29.23679566 C117.12954742 29.23608517 114.4089309 29.23395079 111.68831062 29.23129845 C102.19088549 29.22203983 92.69347441 29.21796388 83.19604492 29.21875 C74.35465622 29.21934974 65.51332875 29.20881967 56.67195553 29.19300634 C49.07519572 29.17990525 41.47845585 29.17456724 33.88168484 29.17520541 C29.34748216 29.1754598 24.81333378 29.17264156 20.27914238 29.16202736 C16.00854085 29.15230406 11.73804503 29.15229607 7.46743965 29.15954399 C5.90584279 29.16058485 4.34423921 29.15825678 2.78265381 29.15218353 C-5.3607233 29.12258253 -13.14005545 29.3090262 -21.05859375 31.40405273 C-22.54166016 31.79463867 -22.54166016 31.79463867 -24.0546875 32.19311523 C-38.91985619 37.28294899 -49.90357049 48.10363998 -56.76953125 62.05639648 C-60.241357 71.07262274 -61.49988723 79.28007935 -61.45973206 88.91896057 C-61.46652873 90.13255766 -61.47332539 91.34615476 -61.48032802 92.59652752 C-61.49593577 95.93475486 -61.49829982 99.27249408 -61.4947449 102.61072266 C-61.49412891 106.2230756 -61.51072686 109.8353581 -61.5249176 113.44767761 C-61.54975527 120.51418123 -61.55807845 127.58060975 -61.55975474 134.64715338 C-61.56118436 140.39712873 -61.56736923 146.14707948 -61.57685661 151.89704704 C-61.60325602 168.23147143 -61.61711822 184.56583688 -61.61486519 200.90028275 C-61.61474532 201.77945897 -61.61462545 202.6586352 -61.61450195 203.56445312 C-61.61437931 204.44471422 -61.61425667 205.32497532 -61.61413031 206.231911 C-61.61291204 220.4843112 -61.64159758 234.73647322 -61.68391705 248.98880459 C-61.72711724 263.65455758 -61.74772156 278.3201947 -61.74513572 292.98601288 C-61.74414343 301.20702587 -61.75222422 309.42778925 -61.78466988 317.64874458 C-61.81212922 324.65069731 -61.81839399 331.65228734 -61.79814161 338.65427089 C-61.78841671 342.21927532 -61.78791267 345.7835859 -61.81420135 349.34852219 C-61.96310359 370.90599485 -60.70825707 389.53924586 -44.828125 405.66967773 C-34.36086835 415.39828116 -22.12705129 421.52335968 -7.63915074 421.5328539 C-6.33164825 421.5361261 -5.02414576 421.53939829 -3.67702198 421.54276964 C-2.22478095 421.54135959 -0.77254 421.53985758 0.67970085 421.53827381 C2.22781276 421.54022685 3.77592417 421.54261573 5.32403481 421.54540178 C9.59922072 421.55181097 13.87438787 421.55196267 18.14957767 421.55112437 C22.7928638 421.55129369 27.43614316 421.5571978 32.07942593 421.56236523 C41.29839532 421.57170002 50.5173599 421.57561476 59.73633342 421.5778842 C70.77508838 421.580844 81.81383696 421.58954011 92.85258857 421.59829848 C119.53642425 421.61915325 146.22026104 421.62961437 172.90410297 421.63842809 C185.52503806 421.6426332 198.14597267 421.64785538 210.76690736 421.65311262 C253.28397061 421.67072343 295.80103428 421.6857763 338.31810061 421.69308285 C341.70743975 421.69366682 345.09677889 421.69426409 348.48611803 421.69486047 C349.15845271 421.69497859 349.8307874 421.69509671 350.52349587 421.69521841 C357.33514623 421.69641579 364.14679658 421.69762455 370.95844694 421.69885094 C372.32419868 421.69909618 373.68995041 421.69934003 375.05570215 421.69958251 C418.90993317 421.70737068 462.76413742 421.72975017 506.61835674 421.76225894 C553.65241836 421.79711314 600.68646345 421.81773494 647.72054017 421.82107705 C652.80831346 421.82149459 657.89608674 421.82197416 662.98386002 421.82250023 C664.23663365 421.82262342 665.48940729 421.82274661 666.78014377 421.82287354 C686.94779087 421.82520636 707.11540659 421.84087097 727.2830425 421.86134208 C747.55285557 421.88159055 767.82263091 421.887082 788.09245221 421.87757144 C800.13588973 421.87235266 812.1792017 421.87825186 824.22262116 421.90010611 C832.26940336 421.91360491 840.31609906 421.91254529 848.3628821 421.89970416 C852.94651731 421.89280147 857.52991236 421.89215868 862.11352621 421.90926424 C866.29019158 421.92472383 870.46642487 421.92148845 874.64307782 421.90385396 C876.13813301 421.90072526 877.63322172 421.90417977 879.12823848 421.91534571 C897.49425733 422.0434916 912.04175222 417.54499615 925.6171875 404.82202148 C936.46101842 393.54079234 941.28219006 379.7806484 941.19537354 364.30947876 C941.19849352 363.43975351 941.2016135 362.57002825 941.20482802 361.67394769 C941.21275199 358.78394459 941.20650632 355.89415475 941.20019531 353.00415039 C941.2029077 350.92217385 941.20647003 348.84019826 941.21081543 346.75822449 C941.21991329 341.11974488 941.21640559 335.48133868 941.21005726 329.84285784 C941.20498245 323.93164406 941.20969295 318.02043644 941.21282959 312.10922241 C941.21646548 302.18144608 941.2116806 292.25369954 941.20214844 282.32592773 C941.19127063 270.86464728 941.19478612 259.40343802 941.20580125 247.9421593 C941.214892 238.08710422 941.21615048 228.23207052 941.21092391 218.37701261 C941.20781327 212.4975724 941.2073698 206.6181656 941.21399689 200.73872757 C941.21979552 195.20815276 941.21572748 189.67766926 941.20420837 184.14710426 C941.20157497 182.12312153 941.20230419 180.09913104 941.2067337 178.07515144 C941.24574756 158.42960816 939.60718381 142.37343502 925.25390625 127.58374023 C913.57409425 116.57472825 900.91260853 111.05392497 884.84461117 111.15630627 C883.97048764 111.15380819 883.09636411 111.15131011 882.19575199 111.14873633 C879.27625463 111.1427957 876.35697409 111.15104242 873.43748474 111.15922546 C871.31939544 111.15780247 869.20130658 111.15548903 867.08321911 111.15236312 C861.26996638 111.14626768 855.45678206 111.15250107 849.6435343 111.16067374 C843.37149461 111.16726602 837.09946357 111.16225327 830.8274231 111.15844727 C820.66651715 111.15356485 810.50563017 111.15399821 800.3447249 111.15915204 C783.19518058 111.16783245 766.04567987 111.15907078 748.89614086 111.14481039 C742.29466039 111.13939019 735.69317949 111.13450567 729.09169865 111.12958241 C728.35832981 111.12903217 727.62496098 111.12848193 726.86936884 111.12791502 C709.42113357 111.11490354 691.97289713 111.10676831 674.5246582 111.10058594 C673.76139595 111.10031066 672.9981337 111.10003539 672.21174229 111.09975177 C654.39897286 111.09338955 636.5862078 111.09044118 618.7734375 111.09436035 C617.6237657 111.09461163 617.6237657 111.09461163 616.45086821 111.09486799 C612.58590105 111.09572592 608.7209339 111.09662417 604.85596675 111.09753732 C604.09208056 111.09771772 603.32819437 111.09789813 602.54116011 111.098084 C600.99932494 111.09844978 599.45748977 111.09881889 597.9156546 111.09919134 C572.44617326 111.10524285 546.97674407 111.09449485 521.50727859 111.06470757 C517.9113016 111.06052239 514.3153244 111.05655818 510.719347 111.05274391 C510.01164869 111.05199088 509.30395038 111.05123784 508.57480667 111.05046199 C497.18360758 111.03889295 485.79248802 111.0455287 474.40129436 111.05933315 C462.95704085 111.07289831 451.5129437 111.06837418 440.0686956 111.04636344 C433.8682054 111.03501998 427.66799085 111.03192029 421.46751213 111.05053902 C415.79326005 111.06742043 410.11951395 111.06139985 404.44529331 111.03704045 C402.39092638 111.03230389 400.33651904 111.03605109 398.28218787 111.04906591 C395.49163077 111.06552535 392.70284174 111.0512533 389.91236019 111.02932262 C389.11291972 111.04142504 388.31347924 111.05352746 387.4898133 111.06599662 C381.54626735 110.96978252 377.58042432 109.09721125 372.94140625 105.40405273 C369.97866154 101.97837917 369.40178054 98.93149607 369.58984375 94.39233398 C370.35673867 90.05511718 373.05707957 87.30373197 376.0454675 84.26346344 C379.87787428 81.80276976 383.18060636 81.85109072 387.58892632 81.90348148 C388.90017302 81.89521023 388.90017302 81.89521023 390.23790956 81.88677189 C393.18191061 81.87312211 396.12507532 81.88810361 399.06906128 81.90284729 C401.19521174 81.89895634 403.32135961 81.89331757 405.4475013 81.88607639 C411.30195102 81.871273 417.1561331 81.88153221 423.01057434 81.89581311 C429.3203211 81.90689195 435.63002936 81.89499024 441.93977356 81.88597107 C453.59260786 81.87282056 465.2453325 81.87783819 476.89816127 81.89204636 C487.6687193 81.90509402 498.43924644 81.91029493 509.20981216 81.9077282 C509.92403288 81.90756778 510.6382536 81.90740736 511.37411736 81.90724209 C514.27342398 81.9065785 517.17273057 81.90587608 520.07203716 81.90511675 C547.28556412 81.89808873 574.49903673 81.91359442 601.71254984 81.93974021 C625.87446439 81.96283133 650.0363191 81.96825302 674.19824219 81.95800781 C680.37989741 81.95540567 686.56155263 81.95282061 692.74320793 81.95040989 C693.50430712 81.95011244 694.26540632 81.94981499 695.04956912 81.94950853 C715.24751266 81.94188469 735.44545133 81.94831442 755.64339268 81.95910591 C757.81833605 81.96025369 759.99327941 81.96139687 762.16822278 81.96253273 C763.61097988 81.96328799 765.05373697 81.96405363 766.49649405 81.96482974 C777.25166439 81.97047955 788.00681921 81.96916368 798.76198959 81.96460152 C811.00343283 81.95948269 823.24480164 81.9656919 835.48623364 81.98549581 C841.73002789 81.99534865 847.97372817 82.00049474 854.21752739 81.9926033 C859.93969179 81.9855194 865.66166704 81.99241453 871.3838066 82.01020693 C873.44783678 82.0142341 875.51188435 82.01328085 877.57590793 82.00668807 C904.25826266 81.92879327 926.57088973 88.05169112 946.19140625 107.09155273 C965.10357014 126.26891246 970.56050997 150.20492812 970.49072266 176.24438477 C970.49943476 178.4095479 970.50980696 180.57470489 970.521698 182.73985291 C970.54831371 188.5811679 970.54965349 194.42222278 970.5445714 200.26358652 C970.54242003 205.16096253 970.55222942 210.0582872 970.56178224 214.95565212 C970.58391738 226.52312741 970.58487955 238.0904728 970.57275391 249.65795898 C970.56068794 261.54081009 970.58527425 273.42318676 970.62789404 285.30595696 C970.66327482 295.55196851 970.67510519 305.79783008 970.66861856 316.04390037 C970.66501499 322.14390155 970.67004076 328.24356452 970.69804764 334.34350967 C970.72343794 340.08781032 970.71909966 345.83137915 970.69322586 351.57567024 C970.68854485 353.66641438 970.69377901 355.75721193 970.71047211 357.84789467 C970.90400047 384.001728 963.62072618 406.8252647 945.40234375 425.92797852 C933.88134387 437.56834704 919.67282682 444.52345867 903.94140625 448.40405273 C903.26900752 448.57795375 902.59660879 448.75185477 901.90383435 448.93102552 C894.16081997 450.71837653 886.51841578 450.68391542 878.6090765 450.65852833 C877.05744682 450.66092083 875.50581829 450.66418772 873.95419207 450.66824493 C869.69251434 450.67685245 865.43092486 450.67304365 861.1692458 450.6671892 C856.53190417 450.66301572 851.89457856 450.67042268 847.25724083 450.67634171 C839.13015951 450.68510543 831.00310339 450.68641521 822.87601852 450.68283844 C810.79044164 450.67753356 798.70488916 450.68362464 786.61931493 450.69192137 C763.77807216 450.70717046 740.93684047 450.70886545 718.09559368 450.70639835 C700.45629126 450.70456624 682.81699247 450.70632356 665.17769051 450.71062279 C662.64414092 450.71122519 660.11059132 450.71182639 657.57704173 450.71242639 C653.75927031 450.71333364 649.94149888 450.7142423 646.12372746 450.71515874 C610.62171998 450.72358988 575.11971358 450.72794162 539.61770535 450.72375202 C538.61400287 450.72363494 538.61400287 450.72363494 537.59002358 450.72351549 C530.12864291 450.7226427 522.66726225 450.72171344 515.20588159 450.72076485 C514.53224349 450.72067934 513.85860538 450.72059383 513.16455401 450.72050573 C507.56761127 450.71979499 507.56761127 450.71979499 504.99182678 450.71946351 C461.91438324 450.71392911 418.83696114 450.72146602 375.75952148 450.74023438 C364.90725172 450.74495674 354.05498194 450.74963731 343.20271206 450.75407124 C342.53446066 450.75434456 341.86620925 450.75461788 341.17770781 450.75489948 C305.07782778 450.76957232 268.97794731 450.7707049 232.87806469 450.76765889 C227.79932058 450.76726354 222.72057647 450.76690199 217.64183235 450.76656151 C215.76604764 450.76642541 215.76604764 450.76642541 213.85236829 450.76628656 C194.97513034 450.76512063 176.0979054 450.77176865 157.2206707 450.78237343 C135.74909334 450.7944233 114.27754463 450.79598691 92.80596685 450.78358326 C80.79183067 450.77695354 68.77776301 450.77858835 56.76363231 450.79217178 C48.73400063 450.80041755 40.70442026 450.79771701 32.67479274 450.78619651 C28.102716 450.77994137 23.53077294 450.77833602 18.95870393 450.79005984 C14.79027248 450.80064997 10.62208713 450.79715952 6.4536686 450.78295531 C4.96382817 450.78025145 3.47396758 450.78244554 1.98414627 450.79046246 C-24.0143592 450.92069111 -46.0610102 443.827997 -65.05859375 425.40405273 C-65.97705078 424.59581055 -65.97705078 424.59581055 -66.9140625 423.77124023 C-80.72327928 411.19442495 -88.69965269 390.55740339 -90.33969784 372.26950264 C-90.4463548 369.05324497 -90.46843231 365.84883913 -90.45300293 362.63085938 C-90.45909403 361.41358658 -90.46518514 360.19631378 -90.47146082 358.94215393 C-90.48511506 355.60282856 -90.4855771 352.26400079 -90.48008585 348.92468572 C-90.47739465 345.30754485 -90.49198661 341.69046466 -90.50418091 338.073349 C-90.52515227 331.00075884 -90.52978044 323.92825079 -90.52799302 316.8556332 C-90.52668075 311.0990579 -90.53051316 305.34250802 -90.53791809 299.5859375 C-90.54001751 297.92200025 -90.54211511 296.258063 -90.54421091 294.59412575 C-90.54525444 293.76567689 -90.54629797 292.93722804 -90.54737312 292.08367467 C-90.56624338 276.44230762 -90.56523569 260.80098755 -90.55840379 245.15961385 C-90.55283549 230.89322951 -90.57362902 216.62702515 -90.60676426 202.36068285 C-90.64061434 187.67112327 -90.65565524 172.98164961 -90.65104723 158.29205036 C-90.64881332 150.06150582 -90.6538859 141.83112741 -90.67893982 133.60061646 C-90.70010027 126.59004313 -90.703401 119.57972694 -90.68464023 112.56914252 C-90.67557057 109.00180904 -90.67406359 105.43495299 -90.69499588 101.86765862 C-90.84137109 75.11068687 -87.89694226 49.83199259 -69.05859375 29.40405273 C-68.24777344 28.50170898 -67.43695313 27.59936523 -66.6015625 26.66967773 C-48.62925028 7.6185005 -25.81380945 -0.08038405 0 0 Z " fill="#2296F3" transform="translate(519.05859375,313.595947265625)"/>
<path d="M0 0 C1.3765869 -0.00913666 1.3765869 -0.00913666 2.78098363 -0.01845789 C5.84542372 -0.03506042 8.90944704 -0.03031593 11.97392273 -0.0255127 C14.17545502 -0.03285465 16.37698347 -0.04144125 18.57850647 -0.05117798 C24.5517475 -0.0733904 30.52485056 -0.07632474 36.49812722 -0.07443047 C41.48808744 -0.07431074 46.47801846 -0.0828758 51.46797055 -0.09120798 C63.91595874 -0.11154083 76.36388558 -0.11259257 88.81188162 -0.10540086 C99.60711105 -0.09982788 110.40210298 -0.12064318 121.19727693 -0.15376133 C132.29654284 -0.18754657 143.39571166 -0.20218663 154.49503201 -0.1980443 C160.72051886 -0.19597814 166.9457692 -0.20143581 173.17121315 -0.22593689 C179.02773636 -0.24822462 184.88376599 -0.24630877 190.7402916 -0.22600937 C192.88563992 -0.22260286 195.03102161 -0.22767284 197.17632484 -0.24199295 C219.50451881 -0.3807122 219.50451881 -0.3807122 227.56184864 7.14981842 C235.05251787 14.93016189 235.12656883 23.01736849 235.1035614 33.34094238 C235.11090922 34.75430977 235.11949752 36.16767117 235.12922668 37.58102417 C235.15137896 41.40559278 235.15437647 45.22994553 235.15247917 49.05456948 C235.15235916 52.2551002 235.16093614 55.45558571 235.16925669 58.65610379 C235.18846892 66.21205095 235.19138288 73.76788765 235.18461609 81.32385254 C235.1779799 89.09985169 235.20082735 96.87537593 235.23792982 104.65127879 C235.26869523 111.34369288 235.27997938 118.03595475 235.27609301 124.72843808 C235.27403219 128.71832324 235.2794003 132.70783889 235.3039856 136.69765663 C235.3263634 140.45308447 235.32428477 144.20774436 235.30405807 147.96317673 C235.29906065 149.98417109 235.31858767 152.00518048 235.33906555 154.02607727 C235.2598686 162.67213586 233.94128082 169.76934659 227.92823029 176.30130482 C221.48063716 182.39464297 214.90108338 183.84254284 206.31585693 183.78208923 C204.93102801 183.79016754 204.93102801 183.79016754 203.51822275 183.79840904 C200.43528527 183.81267728 197.35277785 183.80558762 194.26982117 183.79846191 C192.05519262 183.80416605 189.84056702 183.81113048 187.62594604 183.81925964 C181.61770816 183.83720093 175.60961624 183.83602083 169.60135961 183.83031726 C164.583874 183.82722693 159.56641649 183.83331612 154.54893488 183.83935601 C142.03514336 183.8542056 129.52142231 183.85058503 117.00763582 183.8384927 C106.14965536 183.82856065 95.29184531 183.84150196 84.43389113 183.86542689 C73.27361799 183.88983191 62.11340659 183.89902285 50.95310301 183.89277416 C44.69194907 183.8894032 38.43093595 183.89182916 32.16980171 183.90902519 C26.28214621 183.92448981 20.39481616 183.92054378 14.50717354 183.90172005 C12.34808922 183.89803293 10.18898081 183.90114617 8.02991867 183.91160583 C5.07903948 183.9248086 2.12923885 183.91327406 -0.82159424 183.89561462 C-1.67287098 183.90521963 -2.52414773 183.91482464 -3.40122074 183.9247207 C-10.55370767 183.83684964 -15.66009518 181.68845648 -21.06636047 177.01940918 C-25.97540468 171.29219094 -28.43340327 167.05648686 -28.46353149 159.50679016 C-28.4706868 158.2773468 -28.4778421 157.04790344 -28.48521423 155.78120422 C-28.48805448 154.41635157 -28.49076621 153.05149865 -28.49336243 151.68664551 C-28.49962819 150.25092403 -28.50627509 148.81520417 -28.51327515 147.37948608 C-28.53430743 142.66181567 -28.54467787 137.94414496 -28.55464172 133.22644043 C-28.55868982 131.60113699 -28.56280676 129.97583372 -28.56699181 128.35053062 C-28.58604294 120.71310737 -28.60027321 113.07569376 -28.60860378 105.43825132 C-28.61837136 96.62923898 -28.64467857 87.82047824 -28.68510467 79.01155454 C-28.71529464 72.1986844 -28.73007544 65.38588626 -28.73338479 58.57295054 C-28.73573232 54.50597163 -28.7446536 50.43926152 -28.76984596 46.37235451 C-28.79318186 42.54323991 -28.79733803 38.71457004 -28.78708458 34.88540268 C-28.78659041 33.48420797 -28.79287563 32.08299097 -28.80664062 30.68186378 C-28.89020614 21.66742277 -28.47976853 15.24456496 -22.42182922 8.18737793 C-21.78889954 7.65757324 -21.15596985 7.12776855 -20.50386047 6.58190918 C-19.87866516 6.03921387 -19.25346985 5.49651855 -18.60932922 4.93737793 C-12.41699535 0.77047524 -7.29609125 -0.04582721 0 0 Z " fill="#FDFEFE" transform="translate(528.3163604736328,411.6055908203125)"/>
<path d="M0 0 C2.7928765 1.39643825 4.89718635 2.54508508 7.328125 4.36328125 C7.95525391 4.83169434 8.58238281 5.30010742 9.22851562 5.78271484 C9.89560547 6.28754395 10.56269531 6.79237305 11.25 7.3125 C11.94802734 7.8379541 12.64605469 8.3634082 13.36523438 8.90478516 C19.15545909 13.29410725 24.8147236 17.83441254 30.41894531 22.45825195 C34.86263029 26.11840831 39.3812799 29.53595993 44 33 C44.33 22.44 44.66 11.88 45 1 C59.85 1 74.7 1 90 1 C90 30.7 90 60.4 90 91 C60.3 91 30.6 91 0 91 C0 60.97 0 30.94 0 0 Z " fill="#2397F3" transform="translate(1003,630)"/>
<path d="M0 0 C29.37 0 58.74 0 89 0 C89.103125 8.971875 89.20625 17.94375 89.3125 27.1875 C89.35802002 29.9927417 89.40354004 32.7979834 89.45043945 35.68823242 C89.4650647 37.9522991 89.47780052 40.21637909 89.48828125 42.48046875 C89.51386108 43.62310181 89.53944092 44.76573486 89.5657959 45.94299316 C89.57274534 59.00099592 85.04475502 69.88977328 75.8984375 79.12109375 C71.30059175 83.42663659 66.80911307 86.58166879 61 89 C59.700625 89.5878125 59.700625 89.5878125 58.375 90.1875 C48.24897468 93.65166656 36.91606975 92.6682977 27 89 C15.84359595 83.29652792 6.40867958 74.83903642 2.22129822 62.75230408 C0.03050329 55.42500529 -0.39832014 48.73038057 -0.29296875 41.11328125 C-0.28994751 40.06281616 -0.28692627 39.01235107 -0.28381348 37.93005371 C-0.2682799 34.05743388 -0.22639782 30.18495563 -0.1875 26.3125 C-0.125625 17.629375 -0.06375 8.94625 0 0 Z " fill="#2296F3" transform="translate(1214,631)"/>
<path d="M0 0 C0.71220703 -0.00773438 1.42441406 -0.01546875 2.15820312 -0.0234375 C8.87677568 0.00097148 15.07207272 1.16584253 21.0625 4.375 C22.795 5.303125 22.795 5.303125 24.5625 6.25 C20.55299868 14.70906985 16.01551951 22.74889183 11.22265625 30.78125 C7.96725361 36.24994401 4.76928423 41.7526556 1.5625 47.25 C17.0725 47.25 32.5825 47.25 48.5625 47.25 C47.24769522 63.02765735 43.26797057 73.20190259 31.75 84 C20.29425994 93.5686511 7.39589934 95.24328712 -7.01123047 94.48828125 C-19.26974092 93.28438648 -29.22016731 85.60658719 -36.875 76.41015625 C-45.1818408 64.92594884 -48.04684111 52.04599662 -45.96875 38.10546875 C-44.42363597 30.94092212 -41.70897735 25.18315047 -37.4375 19.25 C-36.60798828 18.09177734 -36.60798828 18.09177734 -35.76171875 16.91015625 C-27.05310686 6.00108139 -13.8785398 -0.14990322 0 0 Z " fill="#2296F3" transform="translate(1152.4375,628.75)"/>
<path d="M0 0 C12.49875 -0.185625 12.49875 -0.185625 25.25 -0.375 C27.85551758 -0.42962402 30.46103516 -0.48424805 33.14550781 -0.54052734 C55.04247041 -0.80772248 55.04247041 -0.80772248 64 6 C64.70068604 6.48807129 65.40137207 6.97614258 66.12329102 7.47900391 C72.45354839 12.07207985 77.47790444 20.38952222 79 28 C79.7879 39.90414135 78.27172994 49.33031201 71 59 C63.15561819 67.71431325 54.54772897 71.25498523 43 72 C43 77.61 43 83.22 43 89 C28.81 89 14.62 89 0 89 C0 59.63 0 30.26 0 0 Z " fill="#2196F3" transform="translate(849,632)"/>
<path d="M0 0 C26.4 0 52.8 0 80 0 C80 14.52 80 29.04 80 44 C74.39 44 68.78 44 63 44 C63 58.85 63 73.7 63 89 C48.15 89 33.3 89 18 89 C18 74.15 18 59.3 18 44 C12.06 44 6.12 44 0 44 C0 29.48 0 14.96 0 0 Z " fill="#2196F3" transform="translate(653,632)"/>
<path d="M0 0 C31.02 0 62.04 0 94 0 C92.47527739 4.57416784 91.05247528 7.98823144 88.734375 12.10546875 C88.09113281 13.25466797 87.44789063 14.40386719 86.78515625 15.58789062 C86.10695862 16.78786657 85.42857239 17.98773594 84.75 19.1875 C84.0867511 20.36756412 83.42398696 21.54790084 82.76171875 22.72851562 C82.43634125 23.30677597 82.11096375 23.88503632 81.77572632 24.4808197 C81.12002122 25.65286062 80.46985211 26.82801493 79.82510376 28.00611877 C78.39706462 30.60225006 76.94376879 33.07790988 75.20849609 35.48217773 C68.73066874 44.97494619 70.11342299 56.66426033 70.125 67.6875 C70.08375 75.050625 70.0425 82.41375 70 90 C55.15 90 40.3 90 25 90 C25.103125 83.07 25.20625 76.14 25.3125 69 C25.18042904 50.99840622 23.58236628 38.41341314 12.78076172 23.52148438 C9.76117888 19.24588092 7.26509092 14.67505311 4.6875 10.125 C2.74920635 6.85545018 2.74920635 6.85545018 0.8034668 3.59033203 C0 2 0 2 0 0 Z " fill="#2497F3" transform="translate(743,631)"/>
<path d="M0 0 C31.02 0 62.04 0 94 0 C92.58098148 4.25705557 91.43741504 7.29363077 89.27734375 11.0546875 C88.46813477 12.47394531 88.46813477 12.47394531 87.64257812 13.921875 C87.07990234 14.89640625 86.51722656 15.8709375 85.9375 16.875 C84.25511153 19.81462462 82.57578311 22.7543582 80.92504883 25.71191406 C79.54495976 28.0691797 78.14705629 30.263813 76.59643555 32.49902344 C68.82952017 44.1515023 68.75242292 54.78122411 68.9375 68.5 C68.958125 75.595 68.97875 82.69 69 90 C54.48 90 39.96 90 25 90 C25.144375 83.131875 25.28875 76.26375 25.4375 69.1875 C25.36284105 49.42634289 22.48500088 36.81717036 10.88232422 20.67382812 C8.12849581 16.76203452 5.85036355 12.63239554 3.5625 8.4375 C3.0065918 7.47106567 3.0065918 7.47106567 2.43945312 6.48510742 C0 2.23456324 0 2.23456324 0 0 Z " fill="#2397F3" transform="translate(1314,631)"/>
<path d="M0 0 C15.51 0 31.02 0 47 0 C47 29.7 47 59.4 47 90 C31.49 90 15.98 90 0 90 C0 60.3 0 30.6 0 0 Z " fill="#2497F3" transform="translate(941,631)"/>
<path d="M0 0 C16.95880779 2.25732977 34.17889175 2.38637311 51.26538086 2.40527344 C52.61531631 2.40827957 52.61531631 2.40827957 53.99252319 2.41134644 C71.99692867 2.42099225 89.87611771 1.36182075 107.81616211 -0.09082031 C108.94297897 -0.1815406 108.94297897 -0.1815406 110.09255981 -0.27409363 C114.12986332 -0.61835511 118.0898109 -1.13210847 122.07788086 -1.84472656 C129.5223253 -2.71324508 129.5223253 -2.71324508 132.95288086 -0.79785156 C135.78645902 1.51805367 137.90082149 3.42213462 138.28100586 7.14355469 C138.37819601 11.96256609 138.33834434 15.31258434 135.07788086 19.15527344 C132.09623093 20.94896657 129.49170274 21.53503639 126.05444336 21.93652344 C125.05050537 22.05535889 124.04656738 22.17419434 123.01220703 22.29663086 C121.92012939 22.41498291 120.82805176 22.53333496 119.70288086 22.65527344 C118.5444165 22.78200439 117.38595215 22.90873535 116.19238281 23.03930664 C77.62568374 27.11294487 38.71455993 27.72549821 0.07788086 24.15527344 C-1.16832031 24.04812012 -2.41452148 23.9409668 -3.69848633 23.83056641 C-7.44229981 23.50358956 -11.18212919 23.148228 -14.92211914 22.78027344 C-16.04505371 22.6786792 -17.16798828 22.57708496 -18.32495117 22.47241211 C-24.28350813 21.83014762 -28.36393705 21.15867679 -32.92211914 17.15527344 C-35.73937147 12.92939494 -35.72170298 9.11902656 -34.92211914 4.15527344 C-26.84805318 -6.25602215 -11.4716491 -1.59868917 0 0 Z " fill="#2397F3" transform="translate(579.922119140625,553.8447265625)"/>
<path d="M0 0 C5.34740414 1.95385921 8.45618143 4.91236287 11 10 C11.56350726 14.61891196 11.4422879 18.09841312 9.375 22.3125 C5.37554074 26.8382039 2.15451692 29.21824925 -3.9375 29.625 C-8.75444498 29.44336557 -11.22448972 27.91606169 -14.625 24.60546875 C-18.17301378 20.46275948 -18.43496966 17.76244729 -18.3125 12.50390625 C-17.68040056 7.43920945 -14.97399324 4.84117598 -11.25 1.625 C-7.24603395 -0.37698302 -4.38614557 -0.71932787 0 0 Z " fill="#2597F3" transform="translate(722,489)"/>
<path d="M0 0 C4.81706073 2.3630864 7.6369136 5.18293927 10 10 C10.84473563 14.80120151 10.50527468 18.05914369 8.1875 22.375 C3.01350016 28.5837998 3.01350016 28.5837998 -2.234375 29.30859375 C-7.07477614 29.55662673 -10.18632576 29.43073251 -14 26.25 C-16.8847222 23.50396637 -18.71319891 20.83419301 -19.3359375 16.8515625 C-19.43182051 11.38623105 -18.75591353 8.25011267 -15 4 C-10.27299866 -0.17735002 -6.09448069 -1.07227847 0 0 Z " fill="#2597F3" transform="translate(593,489)"/>
<path d="M0 0 C4.81721665 2.36316288 7.60160527 5.20321055 10 10 C10.94838947 15.32803075 9.99731458 19.45235029 7 24 C2.16365199 28.36450918 -0.96724745 29.46441934 -7.38671875 29.41796875 C-11.69228003 28.72933638 -14.31465822 26.32616197 -17 23 C-19.55264751 18.76842996 -19.67144465 14.82600844 -19 10 C-15.0347732 1.91703767 -8.78452519 -1.54557176 0 0 Z " fill="#2497F3" transform="translate(549,489)"/>
<path d="M0 0 C3.5677811 2.35149209 5.84221079 4.99692157 7.75 8.8125 C8.12381854 14.41977817 7.93490827 17.98022538 4.75 22.8125 C0.32561944 26.90505202 -3.11287178 28.18297619 -9.19140625 28.09375 C-13.61729889 27.48907397 -16.38000704 24.5680202 -19.625 21.75 C-22.15009929 17.18539743 -22.22487287 12.89784428 -21.25 7.8125 C-16.64681548 -0.54747704 -8.91783465 -3.25843958 0 0 Z " fill="#2497F3" transform="translate(638.25,447.1875)"/>
<path d="M0 0 C3.2136476 2.16734373 4.85117291 3.35172971 6.6875 6.8125 C7.46366142 12.45155029 7.45495362 17.19232015 5 22.375 C1.09330067 26.49287227 -1.5723706 27.98612217 -7.25 28.25 C-11.98902795 28.09485325 -14.72093289 27.05367032 -18.3125 23.8125 C-21.88202563 19.88602181 -21.87180245 15.6346559 -21.734375 10.54296875 C-21.09942023 6.43340039 -19.38665139 3.58732612 -16.3125 0.8125 C-11.14350256 -2.35696757 -5.56692985 -1.99569183 0 0 Z " fill="#2497F3" transform="translate(681.3125,447.1875)"/>
<path d="M0 0 C4.32548892 2.20355096 7.56153147 4.77957369 10 9 C10.92749911 14.62752269 10.22701728 19.21511231 7 24 C2.34485454 28.20098493 -0.53035959 29.3543609 -6.6796875 29.28515625 C-11.15770911 28.734827 -13.92712687 26.22085563 -16.8125 22.9375 C-19.30909337 18.86411082 -19.62713547 14.65493512 -19 10 C-14.97299499 1.94598998 -8.81422225 -1.56662119 0 0 Z " fill="#2497F3" transform="translate(593,446)"/>
<path d="M0 0 C4.02300296 1.82159094 6.44640551 4.1963951 8.9375 7.8125 C10.24015884 11.72047652 10.72477592 14.92822516 10 19 C7.6006196 23.79876079 4.83831756 26.6704397 0 29 C-4.35092148 29.83422627 -8.19767554 30.02517538 -12.12890625 27.7890625 C-15.84920364 24.72894314 -18.57058869 21.74623514 -19.3359375 16.8515625 C-19.43182051 11.38623105 -18.75591353 8.25011267 -15 4 C-10.30970409 -0.14491267 -6.06123877 -1.21224775 0 0 Z " fill="#2497F3" transform="translate(636,489)"/>
<path d="M0 0 C3.5677811 2.35149209 5.84221079 4.99692157 7.75 8.8125 C8.12381854 14.41977817 7.93490827 17.98022538 4.75 22.8125 C0.09485454 27.01348493 -2.78035959 28.1668609 -8.9296875 28.09765625 C-13.40770911 27.547327 -16.17712687 25.03335563 -19.0625 21.75 C-21.72582985 17.40456709 -22.12772924 12.75895545 -21.25 7.8125 C-16.46479339 -0.46419287 -9.0267927 -3.29825118 0 0 Z " fill="#2397F3" transform="translate(725.25,447.1875)"/>
<path d="M0 0 C4.81721665 2.36316288 7.60160527 5.20321055 10 10 C10.94838947 15.32803075 9.99731458 19.45235029 7 24 C2.34485454 28.20098493 -0.53035959 29.3543609 -6.6796875 29.28515625 C-11.15770911 28.734827 -13.92712687 26.22085563 -16.8125 22.9375 C-19.30909337 18.86411082 -19.62713547 14.65493512 -19 10 C-14.96754648 1.93509296 -8.8188022 -1.55160254 0 0 Z " fill="#2397F3" transform="translate(549,446)"/>
<path d="M0 0 C3.74830168 2.18933353 6.24462907 3.82813022 7.78515625 8.01171875 C8.46940635 13.27885321 8.41921578 17.69663233 6.09765625 22.51171875 C2.22276244 26.70079314 -0.45261688 28.1843139 -6.15234375 28.44921875 C-10.8913717 28.294072 -13.62327664 27.25288907 -17.21484375 24.01171875 C-20.8459205 20.01753433 -20.66526125 15.75916027 -20.4921875 10.6015625 C-20.13276578 7.24527235 -19.54105075 5.48800362 -17.21484375 3.01171875 C-11.75692755 -0.94794595 -6.46674165 -2.88551259 0 0 Z " fill="#2497F3" transform="translate(680.21484375,489.98828125)"/>
</svg>
